<svg id="svg" version="1.1" width="400" height="400" viewBox="0 0 400 400" xmlns="http://www.w3.org/2000/svg" xmlns:xlink="http://www.w3.org/1999/xlink"><g id="svgg"><path id="path0" d="M174.316 60.840 L 157.813 60.946 157.813 85.745 L 157.813 110.543 198.535 110.643 L 239.258 110.742 239.357 166.268 L 239.456 221.795 231.740 225.554 C 227.496 227.622,215.596 233.411,205.295 238.420 C 194.995 243.428,186.499 247.729,186.416 247.978 C 186.283 248.379,191.572 251.968,212.598 265.743 C 219.157 270.041,218.953 269.723,216.531 271.856 C 209.269 278.248,191.716 279.319,180.589 274.047 C 167.357 267.778,158.951 254.043,157.865 236.914 L 157.617 233.008 126.801 232.908 C 104.214 232.834,95.841 232.926,95.449 233.252 C 94.486 234.051,95.675 246.992,97.488 255.469 C 103.818 285.047,117.224 306.567,135.023 315.723 C 161.637 329.414,196.568 317.585,223.034 285.917 C 228.010 279.963,235.547 269.191,235.547 268.034 C 235.547 267.831,231.425 264.964,226.388 261.664 C 221.350 258.364,217.277 255.488,217.337 255.273 C 217.397 255.059,221.211 253.107,225.813 250.936 C 230.415 248.766,241.914 243.337,251.367 238.872 C 276.387 227.055,276.488 227.009,276.731 227.252 C 277.350 227.871,276.955 293.444,276.333 293.205 C 275.992 293.074,271.939 290.404,267.326 287.271 C 257.744 280.763,258.689 280.911,255.473 285.412 C 233.030 316.831,202.308 334.375,169.730 334.375 C 162.846 334.375,162.400 334.785,167.869 336.088 C 205.773 345.115,246.367 335.266,273.138 310.549 L 276.158 307.760 282.903 312.598 C 286.613 315.259,290.915 318.363,292.462 319.495 C 294.009 320.627,295.460 321.440,295.685 321.301 C 295.961 321.129,296.097 314.200,296.102 299.879 C 296.111 279.249,296.132 278.666,296.926 276.953 C 298.549 273.454,301.128 265.255,302.324 259.792 C 305.059 247.305,304.840 256.101,304.974 153.677 L 305.095 61.065 288.973 60.806 C 274.127 60.568,213.742 60.586,174.316 60.840 " stroke="none" fill="#fbfbfb" fill-rule="evenodd"></path></g></svg>